<svg id="Слой_1" data-name="Слой 1" xmlns="http://www.w3.org/2000/svg" viewBox="0 0 568 389.87"><defs><style>.cls-1{fill:#5a4a41;}.cls-2{fill:#8d7f78;}</style></defs><path class="cls-1" d="M284,116.87v-54L145.72,162.82l66.64-97.94a40,40,0,0,0-9.23-55.81L94.76,159.79l33.37-109a39.86,39.86,0,0,0,2.55-14c0-16.21-9.93-31.46-24.23-36.8L42.12,161.46l-1.77-.66L40,67.87A39.88,39.88,0,0,0,28.28,39.59,39.88,39.88,0,0,0,0,27.87v362H280.29a40.44,40.44,0,0,0-40.45-40.44H142V214.92ZM40,286.43v-1.08l.54-.37Z"/><path class="cls-2" d="M426,214.92V349.43H328.16a40.44,40.44,0,0,0-40.45,40.44H568v-362a40,40,0,0,0-40,40l-.35,92.93-1.77.66L461.55,0c-14.3,5.34-24.23,20.59-24.23,36.8a39.86,39.86,0,0,0,2.55,14l33.37,109L364.87,9.07a40,40,0,0,0-9.23,55.81l66.64,97.94L284,62.87v54ZM527.46,285l.54.37v1.08Z"/><rect class="cls-1" x="239.85" y="217.32" width="34.28" height="34.28"/><rect class="cls-1" x="239.85" y="270.71" width="34.28" height="34.28"/><rect class="cls-1" x="294.26" y="217.32" width="34.28" height="34.28"/><rect class="cls-1" x="294.26" y="270.71" width="34.28" height="34.28"/></svg>